# Blender v2.79 (sub 0) OBJ File: ''
# www.blender.org
v 0.000000 0.000000 -1.000000
v 0.195090 0.000000 -0.980785
v 0.382683 0.000000 -0.923880
v 0.555570 0.000000 -0.831470
v 0.707107 0.000000 -0.707107
v 0.831470 0.000000 -0.555570
v 0.923880 0.000000 -0.382683
v 0.980785 0.000000 -0.195090
v 1.000000 0.000000 -0.000000
v 0.980785 0.000000 0.195090
v 0.923880 0.000000 0.382683
v 0.831470 0.000000 0.555570
v 0.707107 0.000000 0.707107
v 0.555570 0.000000 0.831470
v 0.382683 0.000000 0.923880
v 0.195090 0.000000 0.980785
v -0.000000 0.000000 1.000000
v -0.195091 0.000000 0.980785
v -0.382684 0.000000 0.923879
v -0.555571 0.000000 0.831469
v -0.707107 0.000000 0.707106
v -0.831470 0.000000 0.555570
v -0.923880 0.000000 0.382683
v 0.000000 2.000000 0.000000
v -0.980785 0.000000 0.195089
v -1.000000 0.000000 -0.000001
v -0.980785 0.000000 -0.195091
v -0.923879 0.000000 -0.382684
v -0.831469 0.000000 -0.555571
v -0.707106 0.000000 -0.707108
v -0.555569 0.000000 -0.831470
v -0.382682 0.000000 -0.923880
v -0.195089 0.000000 -0.980786
vn 0.0000 0.4472 -0.8944
vn 0.0000 1.0000 -0.0000
vn 0.1745 0.4472 -0.8772
vn 0.3423 0.4472 -0.8263
vn 0.4969 0.4472 -0.7437
vn 0.6325 0.4472 -0.6325
vn 0.7437 0.4472 -0.4969
vn 0.8263 0.4472 -0.3423
vn 0.8772 0.4472 -0.1745
vn 0.8944 0.4472 -0.0000
vn 0.8772 0.4472 0.1745
vn 0.8263 0.4472 0.3423
vn 0.7437 0.4472 0.4969
vn 0.6325 0.4472 0.6325
vn 0.4969 0.4472 0.7437
vn 0.3423 0.4472 0.8263
vn 0.1745 0.4472 0.8772
vn -0.0000 0.4472 0.8944
vn -0.1745 0.4472 0.8772
vn -0.3423 0.4472 0.8263
vn -0.4969 0.4472 0.7437
vn -0.6325 0.4472 0.6325
vn -0.7437 0.4472 0.4969
vn -0.8263 0.4472 0.3423
vn -0.8772 0.4472 0.1745
vn -0.8944 0.4472 -0.0000
vn -0.8772 0.4472 -0.1745
vn -0.8263 0.4472 -0.3423
vn -0.7437 0.4472 -0.4969
vn -0.6325 0.4472 -0.6325
vn -0.4969 0.4472 -0.7437
vn -0.3423 0.4472 -0.8263
vn -0.1745 0.4472 -0.8772
vn 0.0000 -1.0000 0.0000
s 1
f 1//1 24//2 2//3
f 2//3 24//2 3//4
f 3//4 24//2 4//5
f 4//5 24//2 5//6
f 5//6 24//2 6//7
f 6//7 24//2 7//8
f 7//8 24//2 8//9
f 8//9 24//2 9//10
f 9//10 24//2 10//11
f 10//11 24//2 11//12
f 11//12 24//2 12//13
f 12//13 24//2 13//14
f 13//14 24//2 14//15
f 14//15 24//2 15//16
f 15//16 24//2 16//17
f 16//17 24//2 17//18
f 17//18 24//2 18//19
f 18//19 24//2 19//20
f 19//20 24//2 20//21
f 20//21 24//2 21//22
f 21//22 24//2 22//23
f 22//23 24//2 23//24
f 23//24 24//2 25//25
f 25//25 24//2 26//26
f 26//26 24//2 27//27
f 27//27 24//2 28//28
f 28//28 24//2 29//29
f 29//29 24//2 30//30
f 30//30 24//2 31//31
f 31//31 24//2 32//32
f 32//32 24//2 33//33
f 33//33 24//2 1//1
f 8//34 16//34 25//34
f 33//34 1//34 2//34
f 2//34 3//34 4//34
f 4//34 5//34 6//34
f 6//34 7//34 4//34
f 7//34 8//34 4//34
f 8//34 9//34 10//34
f 10//34 11//34 8//34
f 11//34 12//34 8//34
f 12//34 13//34 16//34
f 13//34 14//34 16//34
f 14//34 15//34 16//34
f 16//34 17//34 18//34
f 18//34 19//34 20//34
f 20//34 21//34 22//34
f 22//34 23//34 25//34
f 25//34 26//34 27//34
f 27//34 28//34 29//34
f 29//34 30//34 33//34
f 30//34 31//34 33//34
f 31//34 32//34 33//34
f 33//34 2//34 4//34
f 16//34 18//34 25//34
f 18//34 20//34 25//34
f 20//34 22//34 25//34
f 25//34 27//34 33//34
f 27//34 29//34 33//34
f 33//34 4//34 8//34
f 8//34 12//34 16//34
f 33//34 8//34 25//34
